<svg width="640" height="480" xmlns="http://www.w3.org/2000/svg" xmlns:svg="http://www.w3.org/2000/svg">
  <!-- Created with SVG-edit - http://svg-edit.googlecode.com/ -->
  <defs>
    <linearGradient id="svg_16" x1="0" y1="0" x2="1" y2="0">
      <stop stop-color="#f19166" offset="0"/>
      <stop stop-color="#cd63a6" offset="1"/>
    </linearGradient>
  </defs>
  <g>
    <title>Layer 1</title>
    <path fill="url(#svg_16)" stroke="#000000" stroke-width="5" stroke-dasharray="null" stroke-linejoin="null" stroke-linecap="null" d="m58,33c0,2 -37,86 -37,86c0,0 -6,109 -3,123c3,14 32,32 43,36c11,4 50,2 109,28c59,26 60,40 77,54c17,14 35,52 69,69c34,17 80,7 89,4c9,-3 44,-16 94,-55c50,-39 93,-80 84,-153c-9,-73 -67,-90 -111,-107c-44,-17 -104,-31 -122,-53c-18,-22 -78,-56 -97,-57c-19,-1 -106,-9 -113,-3c-7,6 -82,28 -82,28z" id="svg_10" stroke-opacity="0"/>
  </g>
</svg>
