<svg width="640" height="480" xmlns="http://www.w3.org/2000/svg" xmlns:svg="http://www.w3.org/2000/svg">
  <!-- Created with SVG-edit - http://svg-edit.googlecode.com/ -->
  <defs>
    <linearGradient id="svg_1" x1="0" y1="0" x2="1" y2="0">
      <stop stop-color="#9f16ed" offset="0"/>
      <stop stop-color="#380a99" offset="1"/>
    </linearGradient>
  </defs>
  <g>
    <title>Layer 1</title>
    <path fill="url(#svg_1)" stroke="#000000" stroke-width="5" stroke-dasharray="null" stroke-linejoin="null" stroke-linecap="null" stroke-opacity="0" d="m32.000016,273.000001c-12.75,-24.000001 -17.250002,-65.250003 -25.500001,-99.500004c-8.249999,-34.250001 16.75,-116.000002 41.500002,-128.750002c24.750001,-12.750001 75.750001,-37 111.000003,-16.75c35.250001,20.25 36,31.250002 56.99998,66.000003c20.99998,34.750001 26.750022,41.749999 38.750022,40.999999c12,-0.75 17.25,-1.499999 44.499976,-13.499997c27.249976,-11.999999 64.500025,-15.750005 83.250026,0.499996c18.750001,16.250001 28.250001,46.000003 42.500001,55.000003c14.25,9 70.500003,-14.25 102.750003,-12c32.25,2.25 48.750001,9 65.250002,62.250001c16.500001,53.250001 -14.250001,100.500003 -21.750001,123.000003c-7.5,22.500001 -69.750002,117.750003 -104.250003,120.750003c-34.500001,3 -91.500002,-2.250001 -132.750003,-36.000001c-41.250001,-33.750001 -176.250005,-54.000001 -244.500006,-35.250001c-68.250001,18.75 -72.000001,-27.000002 -61.250017,-60.750004c10.749984,-33.750002 16.250016,-41.999998 3.500016,-65.999999z" id="svg_2"/>
  </g>
</svg>
